<svg xmlns="http://www.w3.org/2000/svg" width="659.594" height="648.984" viewBox="0 0 659.594 648.984"><defs><style>.cls-1{isolation:isolate;}.cls-2{opacity:0.3;}.cls-2,.cls-6{mix-blend-mode:multiply;}.cls-3{fill:#858178;}.cls-4{fill:#e5decf;}.cls-5{fill:#f99;}.cls-6{opacity:0.4;}.cls-7{fill:#191919;}.cls-8{fill:#897575;}.cls-9{opacity:0.9;}.cls-10{fill:#fff8e6;}.cls-11{fill:#414141;}.cls-12{fill:#594833;}.cls-13{opacity:0.7;}.cls-14{fill:#ce3653;}</style></defs><g class="cls-1"><g id="Layer_2" data-name="Layer 2"><g id="Layer_1-2" data-name="Layer 1"><g class="cls-2"><circle class="cls-3" cx="336.644" cy="326.032" r="322.951" transform="translate(-131.939 333.536) rotate(-45)"/></g><circle class="cls-4" cx="322.951" cy="322.952" r="322.952" transform="translate(-133.772 322.951) rotate(-45)"/><path class="cls-5" d="M318.17,628.96a5.5,5.5,0,1,1,0-10.992,5.5,5.5,0,1,1,0,10.992Zm26.457-1.126a5.479,5.479,0,0,1-5.461-5.03v-.433a5.5,5.5,0,0,1,10.969-.555v.429a5.5,5.5,0,0,1-4.988,5.556Zm-54.545-.153-.513-.042a5.464,5.464,0,0,1-5.008-5.418l.04-.572a5.5,5.5,0,0,1,10.975.478l-.042.55A5.507,5.507,0,0,1,290.082,627.681Zm82.47-3.655a5.5,5.5,0,0,1-5.429-4.475l-.074-1a5.486,5.486,0,0,1,10.884-1l.117.969a5.45,5.45,0,0,1-4.52,5.4Zm-110.347-.269-1.033-.138a5.432,5.432,0,0,1-4.478-5.416l.12-.982a5.49,5.49,0,0,1,10.884,1.045l-.11,1A5.493,5.493,0,0,1,262.205,623.757Zm137.744-6.1a5.554,5.554,0,0,1-5.3-4.014l-.207-1.506a5.47,5.47,0,0,1,4.006-5.254,5.532,5.532,0,0,1,6.775,3.765l.232,1.489a5.6,5.6,0,0,1-4,5.325Zm-165.119-.483-1.519-.182a5.5,5.5,0,0,1-3.981-5.323l.2-1.477a5.662,5.662,0,0,1,6.843-3.789A5.539,5.539,0,0,1,240.3,611.7l-.192,1.535A5.507,5.507,0,0,1,234.83,617.174Zm191.8-8.479a5.573,5.573,0,0,1-5.148-3.5,6.22,6.22,0,0,1-.343-2.009,5.426,5.426,0,0,1,3.484-5.105,5.624,5.624,0,0,1,7.123,3.093,5.9,5.9,0,0,1,.354,2.061,5.539,5.539,0,0,1-3.5,5.109A5.885,5.885,0,0,1,426.633,608.7Zm-218.444-.6a5.118,5.118,0,0,1-2.009-.38,5.458,5.458,0,0,1-3.5-5.116,5.685,5.685,0,0,1,.393-2.01,5.542,5.542,0,0,1,7.109-3.093,5.429,5.429,0,0,1,3.508,5.1,5.22,5.22,0,0,1-.4,2.009A5.446,5.446,0,0,1,208.189,608.1Zm244.155-10.851a5.482,5.482,0,0,1-4.912-3.009,5.56,5.56,0,0,1-.586-2.481,5.393,5.393,0,0,1,3.03-4.87,5.445,5.445,0,0,1,7.954,4.946,5.333,5.333,0,0,1-3.006,4.819A5.267,5.267,0,0,1,452.344,597.245Zm-269.831-.7a5.584,5.584,0,0,1-5.461-5.5,5.475,5.475,0,0,1,7.983-4.922,5.52,5.52,0,0,1,2.393,7.381A5.522,5.522,0,0,1,182.513,596.546Zm294.37-13.083a5.517,5.517,0,0,1-4.687-2.578,5.663,5.663,0,0,1-.821-2.98,5.384,5.384,0,0,1,2.6-4.583,5.572,5.572,0,0,1,7.541,1.71,5.476,5.476,0,0,1-4.632,8.431ZM158.061,582.6a5.356,5.356,0,0,1-2.951-.873,5.576,5.576,0,0,1-2.552-4.59,5.519,5.519,0,0,1,.866-2.965,5.6,5.6,0,0,1,7.583-1.725,5.473,5.473,0,0,1,2.559,4.6,5.359,5.359,0,0,1-.862,2.989A5.446,5.446,0,0,1,158.061,582.6ZM500,567.444a5.428,5.428,0,0,1-4.357-2.155,5.492,5.492,0,0,1-1.113-3.3,5.406,5.406,0,0,1,2.126-4.4,5.567,5.567,0,0,1,7.714,1.026,5.249,5.249,0,0,1,1.133,3.264,5.657,5.657,0,0,1-2.161,4.436A5.277,5.277,0,0,1,500,567.444Zm-364.974-1.028a5.6,5.6,0,0,1-3.381-1.127,5.487,5.487,0,0,1-2.124-4.315,5.486,5.486,0,0,1,8.852-4.376,5.539,5.539,0,0,1,2.154,4.28,5.676,5.676,0,0,1-1.175,3.433A5.471,5.471,0,0,1,135.023,566.416Zm386.518-17.091a5.435,5.435,0,0,1-4.01-1.771,5.469,5.469,0,0,1,.275-7.784,5.735,5.735,0,0,1,7.776.307,5.454,5.454,0,0,1,1.454,3.7,5.514,5.514,0,0,1-1.765,4.087A5.438,5.438,0,0,1,521.541,549.325Zm-407.977-1.119a5.335,5.335,0,0,1-3.739-1.514,5.268,5.268,0,0,1-1.719-3.941,5.172,5.172,0,0,1,1.442-3.8,5.482,5.482,0,0,1,9.517,3.7,5.521,5.521,0,0,1-5.5,5.558Zm427.754-18.921a5.335,5.335,0,0,1-3.658-1.431,5.655,5.655,0,0,1-1.851-4.045,5.561,5.561,0,0,1,1.416-3.692,5.631,5.631,0,0,1,7.784-.41,5.39,5.39,0,0,1,1.807,4.041,5.66,5.66,0,0,1-1.416,3.721A5.551,5.551,0,0,1,541.318,529.285ZM93.943,528.067H93.9a5.5,5.5,0,0,1-4.075-1.869,5.229,5.229,0,0,1-1.377-3.54,5.3,5.3,0,0,1,1.841-4.22,5.664,5.664,0,0,1,7.741.463,5.515,5.515,0,0,1-.466,7.751A5.422,5.422,0,0,1,93.943,528.067Zm465.172-20.558a5.4,5.4,0,0,1-3.248-1.105,5.51,5.51,0,0,1-2.2-4.4,5.026,5.026,0,0,1,1.061-3.268,5.623,5.623,0,0,1,7.7-1.144,5.5,5.5,0,0,1,2.2,4.372,5.21,5.21,0,0,1-1.084,3.3A5.426,5.426,0,0,1,559.115,507.509Zm-482.9-1.345a5.475,5.475,0,0,1-5.5-5.528,5.61,5.61,0,0,1,2.234-4.412,5.743,5.743,0,0,1,7.714,1.211,5.436,5.436,0,0,1,1.058,3.267,5.538,5.538,0,0,1-2.248,4.39A5.365,5.365,0,0,1,76.212,506.164Zm498.644-22.015a5.038,5.038,0,0,1-2.832-.827,5.5,5.5,0,0,1-2.673-4.688,5.481,5.481,0,0,1,8.334-4.717,5.474,5.474,0,0,1,2.673,4.717,5.669,5.669,0,0,1-.8,2.847h-.037A5.44,5.44,0,0,1,574.856,484.149ZM60.64,482.729a5.542,5.542,0,0,1-4.711-2.66,5.723,5.723,0,0,1-.792-2.88,5.438,5.438,0,0,1,2.67-4.669,5.654,5.654,0,0,1,7.554,1.878,5.248,5.248,0,0,1,.749,2.868,5.393,5.393,0,0,1-2.679,4.67A5.228,5.228,0,0,1,60.64,482.729Zm527.65-23.3a5.707,5.707,0,0,1-2.4-.557,5.5,5.5,0,0,1-3.068-4.984,5.033,5.033,0,0,1,.555-2.372,5.591,5.591,0,0,1,7.311-2.545,5.5,5.5,0,0,1-2.4,10.458ZM47.318,457.933h0a5.478,5.478,0,0,1-4.95-3.109,5.613,5.613,0,0,1-.56-2.394,5.5,5.5,0,0,1,3.115-4.964,5.667,5.667,0,0,1,7.346,2.595,5.463,5.463,0,0,1,.552,2.4,5.559,5.559,0,0,1-3.145,4.907A5.4,5.4,0,0,1,47.318,457.933ZM599.4,433.517a6.253,6.253,0,0,1-1.94-.309,5.606,5.606,0,0,1-3.587-5.2,4.8,4.8,0,0,1,.37-1.887,5.487,5.487,0,0,1,10.641,1.925,4.825,4.825,0,0,1-.357,1.9A5.445,5.445,0,0,1,599.4,433.517Zm-563.01-1.536A5.487,5.487,0,0,1,34.5,421.337a5.6,5.6,0,0,1,7.046,3.305,5.1,5.1,0,0,1,.356,1.873,5.545,5.545,0,0,1-3.625,5.161A6.608,6.608,0,0,1,36.385,431.981Zm571.561-25.273-1.41-.153a5.539,5.539,0,0,1-4.076-5.394l.183-1.374a5.583,5.583,0,0,1,6.724-3.859,5.425,5.425,0,0,1,4.082,5.356l-.189,1.374A5.483,5.483,0,0,1,607.946,406.708Zm-580-1.569a5.489,5.489,0,0,1-5.32-4.1l-.148-1.362a5.446,5.446,0,0,1,4.082-5.359,5.616,5.616,0,0,1,6.727,3.926l.166,1.392a5.471,5.471,0,0,1-4.092,5.33Zm586.023-25.907-.906-.084a5.461,5.461,0,0,1-4.589-5.354l.065-.968a5.506,5.506,0,0,1,10.938.844l-.075,1A5.543,5.543,0,0,1,613.964,379.232ZM22.117,377.626a5.444,5.444,0,0,1-5.416-4.61l-.084-.826a5.477,5.477,0,0,1,10.888-.943l.075.837a5.516,5.516,0,0,1-4.594,5.461Zm595.222-26.315-.385-.04a5.516,5.516,0,0,1-5.118-5.458l.037-.4a5.506,5.506,0,0,1,5.466-5.112h.4a5.555,5.555,0,0,1,5.105,5.461v.448A5.552,5.552,0,0,1,617.339,351.311ZM18.855,349.665a5.5,5.5,0,0,1-5.463-5.1v-.442A5.477,5.477,0,0,1,18.5,338.7a5.619,5.619,0,0,1,5.856,5.113v.432a5.542,5.542,0,0,1-5.111,5.42ZM618.1,323.158a5.478,5.478,0,0,1-5.464-5.368,5.477,5.477,0,1,1,10.952-.2,5.43,5.43,0,0,1-5.371,5.566Zm-599.87-1.64H18.1a5.516,5.516,0,0,1-5.34-5.467l1.972-.113-1.972-.043a5.49,5.49,0,1,1,5.471,5.623Zm598.005-26.425a5.464,5.464,0,0,1-5.409-4.905l-.038-.663a5.5,5.5,0,0,1,10.959-.568v.568a5.455,5.455,0,0,1-4.875,5.53ZM20.27,293.436l-.675-.028a5.424,5.424,0,0,1-4.823-5.38l.039-.7a5.469,5.469,0,0,1,6.088-4.8,5.415,5.415,0,0,1,4.836,5.379l-.024.716A5.492,5.492,0,0,1,20.27,293.436ZM611.8,267.31a5.547,5.547,0,0,1-5.388-4.367l-.117-1.11a5.521,5.521,0,0,1,4.367-5.4,5.6,5.6,0,0,1,6.528,4.233l.116,1.143a5.534,5.534,0,0,1-4.361,5.37Zm-586.93-1.619-1.138-.107a5.573,5.573,0,0,1-4.369-5.424l.159-1.1a5.487,5.487,0,0,1,10.851,1.209l-.124,1.1A5.533,5.533,0,0,1,24.873,265.691Zm579.856-25.635a5.5,5.5,0,0,1-5.279-3.85l-.231-1.659a5.444,5.444,0,0,1,3.889-5.218,5.525,5.525,0,0,1,6.85,3.6l.272,1.619a5.5,5.5,0,0,1-3.9,5.274ZM32.1,238.485a5.448,5.448,0,0,1-5.5-5.513,4.683,4.683,0,0,1,.28-1.647,5.493,5.493,0,0,1,10.727,1.7l-.275,1.644A5.44,5.44,0,0,1,32.1,238.485ZM595.1,213.6a5.509,5.509,0,0,1-5.065-3.346,5.953,5.953,0,0,1-.445-2.154,5.505,5.505,0,0,1,10.582-2.1,4.958,4.958,0,0,1,.422,2.133A5.44,5.44,0,0,1,595.1,213.6Zm-553.24-1.5a5.361,5.361,0,0,1-2.133-.452,5.51,5.51,0,0,1-3.372-5.05,5.277,5.277,0,0,1,.468-2.174,5.6,5.6,0,0,1,7.191-2.905,5.5,5.5,0,0,1,3.349,5.079,6.035,6.035,0,0,1-.431,2.156A5.569,5.569,0,0,1,41.855,212.109Zm541.168-23.9a5.549,5.549,0,0,1-4.839-2.913,5.277,5.277,0,0,1-.617-2.63,5.372,5.372,0,0,1,2.912-4.8,5.628,5.628,0,0,1,7.42,2.234,5.525,5.525,0,0,1,.634,2.631,5.47,5.47,0,0,1-2.915,4.8A5.377,5.377,0,0,1,583.023,188.2Zm-528.954-1.47a5.731,5.731,0,0,1-2.618-.648,5.565,5.565,0,0,1-2.88-4.838,5.752,5.752,0,0,1,.67-2.645,5.624,5.624,0,0,1,7.43-2.2,5.493,5.493,0,0,1,2.915,4.843,5.354,5.354,0,0,1-.669,2.587A5.594,5.594,0,0,1,54.069,186.734Zm514.57-22.71a5.531,5.531,0,0,1-4.6-2.477,5.872,5.872,0,0,1-.9-3.1,5.534,5.534,0,0,1,2.464-4.519,5.495,5.495,0,0,1,8.535,4.646,5.451,5.451,0,0,1-2.471,4.517A5.213,5.213,0,0,1,568.639,164.024Zm-500.014-1.4a5.649,5.649,0,0,1-3.07-.9,5.485,5.485,0,0,1-2.43-4.573,5.221,5.221,0,0,1,.939-3.056,5.591,5.591,0,0,1,7.591-1.54,5.486,5.486,0,0,1,2.431,4.568,5.233,5.233,0,0,1-.9,3.059A5.487,5.487,0,0,1,68.625,162.622Zm483.43-21.355a5.549,5.549,0,0,1-4.294-2.043,5.36,5.36,0,0,1-1.221-3.381,5.57,5.57,0,0,1,2.042-4.317,5.654,5.654,0,0,1,7.761.816,5.45,5.45,0,0,1-.876,7.708A5.342,5.342,0,0,1,552.055,141.267Zm-466.72-1.3a5.57,5.57,0,0,1-3.465-1.225,5.491,5.491,0,0,1-2.033-4.24,5.424,5.424,0,0,1,1.25-3.5,5.633,5.633,0,0,1,7.7-.793,5.489,5.489,0,0,1,2.046,4.248,5.618,5.618,0,0,1-1.222,3.5A5.5,5.5,0,0,1,85.335,139.968Zm448.08-19.78a5.491,5.491,0,0,1-5.5-5.453,5.337,5.337,0,0,1,1.662-3.968,5.621,5.621,0,0,1,7.778.109,5.506,5.506,0,0,1-3.935,9.312ZM104.1,118.971a5.465,5.465,0,0,1-3.859-1.575,5.591,5.591,0,0,1-1.658-3.846,5.4,5.4,0,0,1,1.611-3.889,5.576,5.576,0,0,1,7.746-.079,5.286,5.286,0,0,1,1.653,3.849,5.457,5.457,0,0,1-1.571,3.889A5.29,5.29,0,0,1,104.1,118.971Zm408.8-18.044a5.345,5.345,0,0,1-3.574-1.338,5.409,5.409,0,0,1-1.926-4.121,5.482,5.482,0,0,1,9.076-4.212,5.462,5.462,0,0,1,1.894,4.131,5.328,5.328,0,0,1-1.3,3.619A5.533,5.533,0,0,1,512.893,100.927Zm-388.171-1.1a5.632,5.632,0,0,1-4.2-1.911,5.869,5.869,0,0,1-1.3-3.632,5.546,5.546,0,0,1,1.968-4.127,5.682,5.682,0,0,1,7.741.628,5.61,5.61,0,0,1,1.3,3.5,5.522,5.522,0,0,1-1.962,4.249A5.285,5.285,0,0,1,124.722,99.828Zm365.923-16.2a5.5,5.5,0,0,1-5.5-5.46,5.543,5.543,0,0,1,1.02-3.2,5.647,5.647,0,0,1,7.657-1.337,5.523,5.523,0,0,1,2.33,4.494,5.53,5.53,0,0,1-5.5,5.5ZM147.053,82.7a5.477,5.477,0,0,1-4.531-2.369,5.284,5.284,0,0,1-.972-3.192,5.521,5.521,0,0,1,2.363-4.465,5.605,5.605,0,0,1,7.617,1.375,5.117,5.117,0,0,1,.986,3.184,5.512,5.512,0,0,1-5.463,5.467Zm319.889-14.19a5.439,5.439,0,0,1-5.5-5.468,5.468,5.468,0,0,1,.7-2.755,5.7,5.7,0,0,1,7.514-2.053A5.541,5.541,0,0,1,472.4,63a5.345,5.345,0,0,1-.716,2.749A5.513,5.513,0,0,1,466.942,68.507Zm-296.07-.832a5.5,5.5,0,0,1-4.782-2.758,5.6,5.6,0,0,1-.718-2.756,5.479,5.479,0,0,1,2.784-4.744,5.6,5.6,0,0,1,7.479,2.079,5.487,5.487,0,0,1,.7,2.746,5.386,5.386,0,0,1-2.786,4.723A5.276,5.276,0,0,1,170.872,67.675ZM441.86,55.684a6.059,6.059,0,0,1-2.288-.5,5.552,5.552,0,0,1-3.219-5,6.114,6.114,0,0,1,.51-2.292,5.605,5.605,0,0,1,7.266-2.708,5.447,5.447,0,0,1,3.229,5,5.825,5.825,0,0,1-.472,2.268A5.531,5.531,0,0,1,441.86,55.684Zm-245.9-.668a5.521,5.521,0,0,1-5.006-3.263,5.014,5.014,0,0,1-.457-2.281,5.438,5.438,0,0,1,3.215-4.991,5.485,5.485,0,0,1,7.749,5.032A5.4,5.4,0,0,1,198.2,54.5,5.536,5.536,0,0,1,195.963,55.016Zm219.753-9.755a6,6,0,0,1-1.813-.309,5.5,5.5,0,1,1,7.323-5.152,5.189,5.189,0,0,1-.33,1.732A5.45,5.45,0,0,1,415.716,45.261Zm-193.535-.553a5.425,5.425,0,0,1-5.506-5.5,5.436,5.436,0,0,1,3.743-5.173,5.555,5.555,0,0,1,6.949,3.464,4.934,4.934,0,0,1,.317,1.709,5.61,5.61,0,0,1-3.733,5.242A5.889,5.889,0,0,1,222.181,44.708ZM388.7,37.361l-1.3-.156a5.522,5.522,0,0,1-4.193-5.413l.154-1.225a5.553,5.553,0,0,1,6.656-4.051,5.473,5.473,0,0,1,4.193,5.382l-.154,1.253A5.479,5.479,0,0,1,388.7,37.361Zm-139.474-.387a5.459,5.459,0,0,1-5.342-4.242l-.156-1.224a5.462,5.462,0,0,1,4.24-5.393,5.548,5.548,0,0,1,6.6,4.1l.164,1.249a5.449,5.449,0,0,1-4.248,5.351Zm111.842-4.955-.791-.04a5.556,5.556,0,0,1-4.712-5.381l.079-.828a5.492,5.492,0,0,1,6.212-4.68,5.588,5.588,0,0,1,4.725,5.383l-.087.863A5.49,5.49,0,0,1,361.067,32.019Zm-84.164-.2a5.531,5.531,0,0,1-5.463-4.758l-.04-.7a5.488,5.488,0,0,1,10.927-.791l.032.675a5.437,5.437,0,0,1-4.716,5.5Zm56.128-2.479h-.222a5.494,5.494,0,0,1-5.239-5.5,5.481,5.481,0,1,1,5.461,5.5Zm-28.093-.083a5.478,5.478,0,0,1-.276-10.951h.042a5.48,5.48,0,0,1,.464,10.951l-.038-.309v.309Z"/><path class="cls-5" d="M347.575,199.109c.833.019,1.644-.237,1.58-1.226-.081-1.215-1.133-1.907-2.151-2.351a1.49,1.49,0,0,1-.171-.122c-.923.178-1.946.6-1.928,1.545C344.936,198.162,346.475,199.084,347.575,199.109Z"/><path class="cls-5" d="M351.9,175.873a3.67,3.67,0,0,0,3.621-3.251c.358-2.194-1.182-3.352-3.168-3.682a1.436,1.436,0,0,1-.67-.294C348.3,169.452,348.027,175.856,351.9,175.873Z"/><path class="cls-5" d="M320.114,208.539a1.238,1.238,0,0,1-.367-.143c-1.532.589-1.556,3.715.335,3.642a1.886,1.886,0,0,0,1.734-1.732C321.863,209.136,321.2,208.73,320.114,208.539Z"/><path class="cls-5" d="M409.428,240.033a3.68,3.68,0,0,0,3.628-3.252c.35-2.195-1.183-3.351-3.171-3.684a1.435,1.435,0,0,1-.667-.294C405.836,233.605,405.562,240.015,409.428,240.033Z"/><path class="cls-5" d="M278.25,211.358a1.508,1.508,0,0,1-.609-.236c-2.719.774-2.911,6.013.255,6.031a3.084,3.084,0,0,0,3.04-2.751C281.235,212.551,279.9,211.636,278.25,211.358Z"/><path class="cls-5" d="M260.781,252.675a1.461,1.461,0,0,1-.67-.3c-3.383.8-3.653,7.211.218,7.23a3.673,3.673,0,0,0,3.62-3.253C264.305,254.162,262.767,253.007,260.781,252.675Z"/><path class="cls-5" d="M371.4,250.051a.829.829,0,0,1-.173-.122c-.923.177-1.949.6-1.927,1.544.03,1.21,1.566,2.133,2.667,2.155.831.018,1.643-.238,1.58-1.226C373.47,251.187,372.416,250.5,371.4,250.051Z"/><path class="cls-5" d="M328.858,250.871a1.374,1.374,0,0,1-.668-.3c-3.388.806-3.657,7.212.216,7.231a3.681,3.681,0,0,0,3.62-3.253C332.385,252.359,330.841,251.2,328.858,250.871Z"/><path class="cls-5" d="M309.588,186.772c-13.439,5.739-29.254,2.139-43.307,4.983a1.108,1.108,0,0,1-.276,0c-5.779,3.963-5.913,15.846-4.484,21.582,2.629,10.511,6.732,16.994,17.752,19.38,9.236,2,16.582,6.751,26.447,6.9,8.315.124,16.736.194,25-.885a152.15,152.15,0,0,0,30.791-7.425c1.662-.76,3.287-1.54,4.853-2.352,6.461-3.364,13.215-6.926,19.01-11.354,3-2.287,5.064-5.548,8.065-7.678,5.212-9.459,4.1-20.849-3.166-31.867A49.427,49.427,0,0,0,370.4,160.391c-6.758-3.481-14.045-6.626-19.659-11.886a84.813,84.813,0,0,1-8.683-9.631c-2.906-3.7-4.73-1.469-5.559,2.6-1.082,5.292-.864,10.961-2.3,16.173C330.607,170.67,322.147,181.405,309.588,186.772Zm36.453-15.823a6.493,6.493,0,0,1,7.824-5.389,1.251,1.251,0,0,1,1.049.874,6.085,6.085,0,0,1,3.65,7.026,6.741,6.741,0,0,1-7.464,5.485C347.315,178.367,345.356,174.51,346.041,170.949Zm-4.212,25.321c.508-2.829,3.379-4.054,5.973-4.131a1.385,1.385,0,0,1,1.44,1.008c2.029,1.176,3.609,3.5,2.937,5.915a4.6,4.6,0,0,1-5.756,3.049C343.812,201.487,341.314,199.149,341.829,196.27Zm-57.851,18.972a6.149,6.149,0,0,1-6.836,4.984c-3.454-.527-5.236-4.06-4.611-7.305a5.945,5.945,0,0,1,7.157-4.908,1.266,1.266,0,0,1,1.035.824A5.569,5.569,0,0,1,283.978,215.242Zm35.394-.119c-2.845-.382-4.353-3.364-3.766-6.019a4.815,4.815,0,0,1,5.787-3.831,1.279,1.279,0,0,1,1.006.711C326.814,208.172,324.877,215.861,319.372,215.123Z"/><g class="cls-6"><path class="cls-7" d="M318.557,112.222a49.558,49.558,0,0,1,7.856,23.018,46.32,46.32,0,0,0,1.7-5.449c1.121-4.472,1.129-12.135,2.613-18.257a48.214,48.214,0,0,0-2.613-4.547c-5.857-8.9-18.893-19.65-30.278-13.737a37.893,37.893,0,0,0-6.823,4.172C301.683,94.294,313.162,104.024,318.557,112.222Z"/></g><path class="cls-8" d="M193.5,299.018a8.185,8.185,0,0,1-.23-3.377,32.268,32.268,0,0,0-9.064,5.047,36.848,36.848,0,0,1,6.409-1.668C192.537,299.02,194.942,304.309,193.5,299.018Z"/><path class="cls-8" d="M222.347,257.68a25.731,25.731,0,0,0,4.018,5.827,14.142,14.142,0,0,1-2.121-8.981,31.16,31.16,0,0,0-3.513,2.519c.379-.112.747-.24,1.131-.333Z"/><g class="cls-6"><path class="cls-7" d="M518.434,315.9c-7.694-7.69-18.753-20.189-30.775-22.112-7.695-.963,2.976-1.319,3.85-18.275.962-19.711-18.271-32.211-36.063-35.089-5.24-1.05-8.579-1.569-12.6-.308a38.356,38.356,0,0,0,5.507-6.307c4.691-6.488,7.934-14.782,7.574-22.716-.717-11.173-10.458-15.861-20.191-19.112-7.572-2.52-16.588-6.483-24.159-7.928a8.6,8.6,0,0,0-3.826-.072c.321-.571.66-1.127.939-1.732,2.887-6.127,3.25-15.5,1.445-21.63-2.525-7.574-10.455-20.195-16.226-25.243-7.933-6.855-18.747-10.82-27.76-16.226-9.379-5.77-14.429-12.621-20.919-21.272-3.1,1.8-4.572,5.974-5.43,10.665,4.794,6.165,9.482,11.34,16.793,15.844,9.017,5.406,19.832,9.371,27.765,16.227,5.765,5.046,13.7,17.669,16.223,25.24,1.808,6.129,1.442,15.5-1.44,21.632-.124.263-.272.506-.408.756.08.3.127.6.195.9a8.954,8.954,0,0,1,3.1.149c7.574,1.442,16.589,5.408,24.16,7.927,9.732,3.251,19.47,7.94,20.187,19.113.33,7.231-2.349,14.749-6.376,20.939a29.887,29.887,0,0,1-1.511,7.39,42.291,42.291,0,0,1,7.409,1c17.788,2.88,37.02,15.379,36.06,35.091-.871,16.956-11.545,17.31-3.848,18.272,12.02,1.925,23.08,14.422,30.77,22.116,9.227,9.23,13.994,26.423,6.7,38.418-.524,9.072-6.121,17.038-9.371,25.646-4.323,11.919-7.213,24.639-10.812,37.348-5.777,23.056-12.985,46.89-18.754,70.728-1.562,6.328-6.145,32.559-15.092,43.921,15.389,1.429,22.6-40.886,24.643-49.152,5.77-23.847,12.98-47.681,18.75-70.729,3.609-12.713,6.494-25.433,10.817-37.352,3.257-8.608,8.844-16.575,9.371-25.646C532.427,342.324,527.659,325.127,518.434,315.9Z"/></g><g class="cls-9"><path class="cls-10" d="M495.4,422.548c3.6-12.709,6.489-25.429,10.812-37.348,3.25-8.608,8.847-16.574,9.371-25.646,7.292-11.995,2.525-29.188-6.7-38.418-7.69-7.694-18.75-20.191-30.77-22.116-7.7-.962,2.977-1.316,3.848-18.272.96-19.712-18.272-32.211-36.06-35.091a42.291,42.291,0,0,0-7.409-1,35.023,35.023,0,0,1-2.72,6.25,45.449,45.449,0,0,1-3.417,5.049,48.076,48.076,0,0,1,19.869,5.3c13.041,6.758,25.281,22.185,17.066,37.411a32.389,32.389,0,0,1-4.276,5.982,10.11,10.11,0,0,1,1.808-.185c8.7.068,17.607,9.217,23.225,14.869,5.912,5.959,11.818,11.94,13.713,20.46a27.484,27.484,0,0,1-2.874,20.452c-1.855,5.25-4.627,10.14-6.577,15.727-3.873,11.081-6.932,22.5-9.815,33.865-5.547,21.917-12.485,43.554-17.353,65.636-2.427,11.081-8.14,49.981-26.733,43.71a4.62,4.62,0,0,1-1.546-.923,11.981,11.981,0,0,1-1.056,1.873c-2.88,4.22-9.112,7.56-13.118,4.932a7.343,7.343,0,0,1-2.48,4.412c-3.543,2.744-9.914,4.679-13.306,1.695a1.6,1.6,0,0,1-.917,1.068c-5.784,2.735-20.162,9.381-24.639,2.515a5.253,5.253,0,0,1-2.063,2.309c-4.15,2.431-9.573.613-14.1.642a4.133,4.133,0,0,1-3.553-1.7,9.948,9.948,0,0,1-2.2,2.567c-3.039,2.393-8.3.641-11.727.477-3.571-.417-5.276-1.732-6.177-3.769-1,1.975-2.867,2.884-6.093,3.263-.127.01-.225-.028-.34-.028a1.766,1.766,0,0,1-.857.253c-4.105.244-9.535,2.281-12.94-1.105a9.94,9.94,0,0,1-1.749-2.613c-1.178,2.454-2.932,3.016-6.133,2.992-3.456-.008-9.854,2.188-12.692-.9a10.464,10.464,0,0,1-1.667-2.548c-4.714,7.025-17.708.89-24.115-2.159a1.473,1.473,0,0,1-.9-1.1c-.079-.117-.131-.244-.206-.356-4.168,5.456-11.785,1.48-15.272-3.354a6.315,6.315,0,0,1-.8-1.554c-3.96,2.6-12-2.557-13.6-5.695a14.247,14.247,0,0,1-.752-1.827,4.828,4.828,0,0,1-2.646,1.4c-18.473,3.377-22.93-33.229-25.711-44.937-5.447-22.883-11.971-45.564-18.12-68.272-3.175-11.7-5.641-24.068-10.861-35.088-3.372-7.091-6.578-13.732-6.547-21.74a1.646,1.646,0,0,1,.744-1.424c-2.746-18.873,7.313-40.1,27.5-43.977a1.352,1.352,0,0,1,.735.072,1.18,1.18,0,0,1,.312.064c.161.069.29.2.442.28-.037-.193-.112-.376-.145-.572-.99-6.371,4.8-17.368,8.2-22.584,4.607-7.052,10.158-12.528,18.35-15.036a1.144,1.144,0,0,1,1.278.36c.961-9.806,6.955-18.395,12.224-26.341,3.512-5.3,7.254-10.712,14.066-11.084-9.289-9.714-11.612-36.982.911-41.107.618-.2,2.534-.4,2.813.013,4.2-.419,8.376-.57,12.5-.7-7.634-4.1-14.743-10.829-15.685-18.747-.869-7.309-.735-14.622,6.14-18.593a57.5,57.5,0,0,0,9.8-6.823c-6.679-5.25-13.819-10.671-19.944-16.865-.673.405-1.349.808-1.944,1.151-7.7,4.445-7.847,12.636-6.875,20.827.616,5.2,3.637,9.935,7.742,13.9.358.345.712.7,1.089,1.033l-.479,1.925c-.955.09-1.91.216-2.861.339-1.78.232-3.555.5-5.318.911-8.3,1.437-7.931,17.309-6.849,23.8a48.574,48.574,0,0,0,5.245,14.91l-1.7,6.945c-6.929,1.652-11.945,11.977-15.8,17.444a52.931,52.931,0,0,0-9.736,23.8c-.028.244-.01.46-.028.7a14.142,14.142,0,0,0,2.121,8.981,25.731,25.731,0,0,1-4.018-5.827l-.485-.968c-.384.093-.752.221-1.131.333-11.42,3.38-19.661,15.408-23.384,26.106-1.115,2.978-3.648,8.247-4.075,12.49a8.185,8.185,0,0,0,.23,3.377c1.44,5.291-.965,0-2.885,0a36.848,36.848,0,0,0-6.409,1.668c-23.429,8.168-28.29,37.87-19.094,58.73.33,9.3,6.076,17.4,9.4,26.175,4.322,11.928,7.21,24.634,10.814,37.358,5.767,23.046,12.977,46.885,18.747,70.723,1.754,7.091,7.306,39.275,18.574,47.372a8.661,8.661,0,0,0,8.833,1.106c1.447-.726,2.11-2.693,2.234-5.443.033-.715.037-1.456.005-2.261l.908.585c.015.735.038,1.41.061,2.093.1,2.974.356,5.461,1.476,6.88,3.8,4.82,12.139,9.274,14.063,2.379a12.459,12.459,0,0,0-.107-3.142c.257.113.5.239.756.341a35.2,35.2,0,0,0,.434,6.515c1.081,5.171,9.736,10.341,14.059,5.962a7.228,7.228,0,0,0,1.339-4.627c.019-.632.007-1.273-.019-1.92.317.1.642.2.965.295.061.754.138,1.452.227,2.117.3,2.29.785,3.99,1.515,4.66,4.688,2.388,16.528,6.631,21.577,5.437,2.135-.6,3.114-2.734,3.543-5.465.016-.1.044-.182.058-.286.445.08.9.141,1.344.221.007.107.033.2.04.308a12.059,12.059,0,0,0,.78,3.639c1.443,2.777,5.409,3.176,9.381,2.375,5.044-1.189,9.371,1.588,10.087-3.578.01-.057.01-.136.024-.2,1,.079,1.986.182,3,.248,2.319,7.727,7.925,4.027,14.559,4.027l1.325-.262c3.669-.291,4.662-.81,5.217-3.045.993,0,1.979-.018,2.965-.042.531,2.741,1.379,3.34,5.346,3.654,6.707,0,12.374,3.395,14.635-4.674.2-.015.406-.028.607-.047s.417-.038.628-.052c0,.037.015.08.018.117.778,4.988,5.07,2.281,10.072,3.452,3.966.8,7.938.4,9.38-2.374a10.546,10.546,0,0,0,.665-2.778c.052-.379.118-.744.155-1.147.5-.094.988-.193,1.48-.281a15.863,15.863,0,0,0,.314,1.667c.51,2.21,1.479,3.911,3.332,4.421,5.047,1.19,17.307-3.175,22-5.564l-.339-.2a3.127,3.127,0,0,0,.625-1.414,33.187,33.187,0,0,0,.66-5.588c.347-.1.677-.23,1.028-.347a13.488,13.488,0,0,0,.2,5.32,2.464,2.464,0,0,0,1.248,1.533c5.369,2.481,11.434-.094,13.474-4.329a7.017,7.017,0,0,0,.585-1.629,38.843,38.843,0,0,0,.457-7.156c.272-.127.555-.249.826-.388a15.254,15.254,0,0,0-.2,3.826c.878,3.151,2.911,3.84,5.257,3.263,2.613-.65,5.616-2.866,7.892-5.071.155-.145.309-.3.454-.435,1.916-1.935,2.408-6.1,2.937-10.838a.234.234,0,0,1,.037-.029c-.36,4.543.176,7.873,2.171,8.875.133.057.265.085.4.136,4.622,1.695,8.568-.454,11.91-4.692,8.947-11.362,13.53-37.593,15.092-43.921C482.413,469.438,489.621,445.6,495.4,422.548Z"/><path class="cls-10" d="M283.4,142.018c2.426-2.642,4.082-5.651,3.791-8.9.017-.034,0-.027-.007-.015.012-.012.024-.019.007.015,2.616-4.881,5.384-6.466,10.133-8.932,10.167-5.28,21.8,4.319,27.032,12.265a44.2,44.2,0,0,1,6.894,19.445c.749-3.442,1.274-7.032,1.864-10.872.768-4.986,1.723-9.555,5.847-12.727a1.372,1.372,0,0,1,1.857.486c5.9,7.853,11.83,15.181,20.644,19.923,6.8,3.657,13.793,6.871,20.139,11.31,7.006,4.912,14.666,15.243,17.138,24.226.136-.25.284-.493.408-.756,2.882-6.127,3.248-15.5,1.44-21.632-2.52-7.571-10.458-20.194-16.223-25.24-7.933-6.856-18.748-10.821-27.765-16.227-7.311-4.5-12-9.679-16.793-15.844-1.342-1.733-2.695-3.531-4.118-5.431-2.6,1.5-4.054,4.678-4.963,8.424-1.484,6.122-1.492,13.785-2.613,18.257a46.32,46.32,0,0,1-1.7,5.449,49.558,49.558,0,0,0-7.856-23.018c-5.4-8.2-16.874-17.928-27.547-14.8a14.915,14.915,0,0,0-2.731,1.065c-5.318,2.759-8.591,4.607-11.526,10.08a.351.351,0,0,1,.183-.169c.351,3.57-1.4,6.881-4.014,9.809l-1.873,1.919a49.717,49.717,0,0,1-6.823,5.173A205.712,205.712,0,0,0,283.4,142.018Z"/><path class="cls-10" d="M397.425,208.485c6.441-.342,16.288,5.239,20.806,6.806,8.121,2.817,16.18,5.593,20.328,13.688a16.011,16.011,0,0,1,1.44,8.288c4.027-6.19,6.706-13.708,6.376-20.939-.717-11.173-10.455-15.862-20.187-19.113-7.571-2.519-16.586-6.485-24.16-7.927a8.954,8.954,0,0,0-3.1-.149c.175.724.388,1.462.482,2.162C400.358,198.123,399.521,203.751,397.425,208.485Z"/></g><g class="cls-9"><path class="cls-10" d="M388.672,534.031c5.687-.243,11.361-2.2,16.534-4.557a11.567,11.567,0,0,0,1.372-3.962,46.607,46.607,0,0,1,.221-8.459c-7.059,1.27-14.227,2.665-21.437,4.07C385.25,526.987,385.6,534.176,388.672,534.031Z"/><path class="cls-10" d="M365.662,530.458c.389,1.985,1.277,3.573,3.3,3.564,2.265,0,4.726.763,6.932.6,6.111-.464,5.334-7.564,4.678-12.6-4.69.9-9.38,1.756-14.057,2.543C366.292,526.42,366.079,528.453,365.662,530.458Z"/><path class="cls-10" d="M485.5,375.355c-13.225,31.285-18.052,75.326-31.771,106.387-2.541,5.741-6.7,11.127-10.988,16.255-.445,1.793-.862,3.644-1.194,5.461-.325,2.1-.487,4.378-.74,6.655-.066,3.826.831,6.482,3.643,6.126,9.658-1.25,13.529-18.785,15.539-26.339,2.7-10.13,4.743-20.425,7.426-30.568,5.063-19.156,10.339-38.24,15.446-57.38,2.646-9.919,5.068-20,8.953-29.524.388-.951.8-1.873,1.217-2.8A66.143,66.143,0,0,1,485.5,375.355Z"/><path class="cls-10" d="M410.54,525.61c.82,3.072,3.3,3.134,4.489,3.3,5.071.73,6.887-3.56,6.408-8.117.011-.792.027-1.564.048-2.346,0-1.275.049-2.53.1-3.794q-5.345.759-10.8,1.7C410.622,519.447,410.454,522.561,410.54,525.61Z"/><path class="cls-10" d="M426.524,514.014c-.032.206-.065.426-.107.637-.22,1.293-2.529,10.964,3.735,6.983,3.244-2.06,5.84-4.435,6.4-8.43.054-.346.095-.689.137-1.035a36.1,36.1,0,0,1,.851-8,81.821,81.821,0,0,0-7.06,9.367C429.173,513.672,427.846,513.845,426.524,514.014Z"/><path class="cls-10" d="M349.7,535.389c5.36.262,10.191,1.705,11.987-4.73a30.112,30.112,0,0,1-.267-5.279c-5.32.829-10.61,1.551-15.813,2.052C346.311,531.918,347.561,535.131,349.7,535.389Z"/><path class="cls-10" d="M311.148,534.664c5.407-.708,7.182-2.773,7.592-6.558q-7.571-.252-15.142-.824C303.561,531.731,304.7,535.5,311.148,534.664Z"/><path class="cls-10" d="M277.536,524.332a12.468,12.468,0,0,0,1.664,5.142c4.754,2.253,19.481,9.156,19.813-.393.017-.708,0-1.453.017-2.165q-10.828-.968-21.515-2.786C277.515,524.2,277.536,524.266,277.536,524.332Z"/><path class="cls-10" d="M230.29,493.361c-5.47-13.011-7.536-27.243-10.222-40.821-3.079-15.619-5.379-31.406-9.083-46.925-1.405-5.906-6.674-22.228-8.027-27.852a8.107,8.107,0,0,0,1.662-.262c-2.416-1.275-4.777-2.6-7.017-4.052a32.618,32.618,0,0,1-7.827-7.1c1.347,2.931,2.747,5.877,3.838,9.015,3.48,9.994,6,20.222,8.843,30.4,5.3,19.046,10.49,38.183,15.4,57.342,2.327,9.128,9.558,58.148,23.929,53.3,1.492-.5,2.138-2.22,2.274-4.571A44.8,44.8,0,0,1,230.29,493.361Z"/><path class="cls-10" d="M262.944,520.834c.047,1.221.129,2.444.286,3.648a7.14,7.14,0,0,0,5.248,2.823c1.775-.014,2.742-.454,5.1-2.843-.026-.346-.031-.683-.042-1.03A103.052,103.052,0,0,1,262.944,520.834Z"/><path class="cls-10" d="M253.107,521.76c4.7,2.361,5.625.258,5.552-2.313a61.486,61.486,0,0,1-10.137-4.538C249.028,517.747,250.241,520.3,253.107,521.76Z"/><path class="cls-10" d="M323.547,528.228a32.937,32.937,0,0,0,1.052,3.911c1.952,5.648,7.608,3.194,11.633,2.979a1.122,1.122,0,0,1,.382.05,1.812,1.812,0,0,1,.815-.285c2.728-.328,3.709-3.39,3.943-7.1-4.854.374-9.648.589-14.348.519C325.875,528.285,324.706,528.256,323.547,528.228Z"/><path class="cls-10" d="M340.77,493.389c0-10.707.23-21.417.447-32.123-.295-18.57-.609-37.121-.288-55.7l-7.671.154c-4.819.1-9.7.155-14.614.174q.094,1.1.187,2.191c.063.567.1,1.129.141,1.71.688,9.51.529,19.042,1.046,28.572.7,12.8,2.087,25.6,2.03,38.426-.056,12.009-.676,24.027,0,36.016.288,5.029.427,10.4,1.5,15.422,1.159.028,2.328.057,3.477.075,4.7.07,9.494-.145,14.348-.519.316-4.829-.661-10.773-.707-13.194C340.534,507.541,340.77,500.465,340.77,493.389Z"/><path class="cls-10" d="M433.5,430.908c2.1-11.728,5.552-23.8,6.931-35.761-6.662,1.873-13.4,3.377-20.195,4.6-.337,1.953-.674,3.915-1,5.864-.006.173-.023.323-.043.486-.466,5.771-1.333,11.482-2.183,17.206a583.824,583.824,0,0,0-5.979,86.263c0,2.233-.124,4.5-.243,6.781q5.459-.948,10.8-1.7c.022-.875.03-1.756.057-2.641.426-12.95,3.009-25.656,4.983-38.455C428.811,459.317,430.981,445.08,433.5,430.908Z"/><path class="cls-10" d="M317.354,485.3c.126-14.157-1.944-28.263-2.525-42.4-.44-10.453.431-20.879.014-31.3a23.326,23.326,0,0,0-.773-5.695c-5.367-.032-10.762-.164-16.155-.412-.124,7.039,1.621,14.085,1.545,21.144-.058,6.59-.563,13.249.125,19.826,1.4,13.4,2.061,26.8,3.016,40.243.845,11.807,2.168,23.544,1.32,35.35-.13,1.7-.3,3.522-.323,5.236q7.567.576,15.142.824a29.812,29.812,0,0,0,.039-4.8C318.075,510.516,317.251,498.128,317.354,485.3Z"/><path class="cls-10" d="M366.149,430.1c-.185-7.981-1.539-17.183.08-25.191-7.065.253-14.151.421-21.239.567.323,18.657.012,37.3-.274,55.941q.361,17.731.437,35.449c.015,2.008-.29,7.389-.367,13.511.042,2.525.042,5.063.042,7.587a78.576,78.576,0,0,0,.778,9.465c5.2-.5,10.493-1.223,15.813-2.052.122-4.635.993-9.544,1.355-13.5a203.6,203.6,0,0,0,.652-23.6c-.188-7.977.286-15.929.869-23.876.56-9.868,1.477-19.722,1.761-29.594C366.105,433.245,366.119,431.666,366.149,430.1Z"/><path class="cls-10" d="M384.95,422.951c.319-6.375,1.781-12.724,1.474-19.1q-7.662.555-15.373.875c.154,11.355-.574,22.858-1.436,34.333-.043,2.337-.11,4.684-.248,7.024q-.876,14.7-1.684,29.379c-.068,16.308.8,32.648-1.138,48.89-.014.075-.022.15-.033.216,4.677-.787,9.367-1.645,14.057-2.543-.117-.97-.246-1.864-.309-2.614-1.032-12.05.939-24.456,1.745-36.5.9-13.274,2.65-26.79,3.02-40.062C385.213,436.219,384.618,429.569,384.95,422.951Z"/><path class="cls-10" d="M415.788,402.861c.079-.7.152-1.518.239-2.351-7.836,1.283-15.751,2.187-23.71,2.875-1.723,2.82-1.821,6.791-1.8,11.364.047,15.48.245,31.089-.916,46.531-1.307,17.5-4.44,35.205-4,52.771.03.988-.183,3.836-.24,7.072,7.21-1.405,14.378-2.8,21.437-4.07.042-.481.079-.94.133-1.409-.258-4.3-.786-8.518-.857-11.277a307.97,307.97,0,0,1,1.014-33.065c1.714-21.187,4.608-42.051,8.027-62.91C415.336,406.546,415.572,404.71,415.788,402.861Z"/><path class="cls-10" d="M458.582,420.589c.028-.075.042-.149.07-.215,2.235-9.612,4.6-19.185,7.311-28.669.141-.525.323-1.012.489-1.5.226-1.583.413-3.171.558-4.773a173.642,173.642,0,0,1-21.578,8.224c-.237,1.761-.366,3.635-.663,5.48-2.113,13.2-5.435,26.113-7.827,39.231-4.582,25.094-6.151,50.552-10.418,75.65,1.322-.169,2.649-.342,3.956-.482a81.821,81.821,0,0,1,7.06-9.367c.173-.843.36-1.658.548-2.426.248-1.8.476-3.611.775-5.4,2.117-12.546,6.332-24.531,9.4-36.853C451.508,446.438,454.5,433.405,458.582,420.589Z"/><path class="cls-10" d="M247.438,438.734c-2.5-13.095-5.877-26.029-7.831-39.236-.262-1.742-.4-3.555-.625-5.288-4.679-2-9.264-4.214-13.769-6.584-2.585-1.359-5.274-2.661-7.99-3.948.15,2.2.347,4.4.663,6.575.457,1.508.864,3.026,1.241,4.6,1.5,6.323,2.958,12.645,4.433,18.972q1.1,3.56,2.224,7.122c4.075,12.833,7.026,25.862,10.327,38.9,3.12,12.289,8.669,24.166,10.505,36.723a127.1,127.1,0,0,1,1.557,14.78,24.08,24.08,0,0,0,.349,3.56,61.486,61.486,0,0,0,10.137,4.538,30.255,30.255,0,0,0-.7-4.431C253.238,489.8,252.246,463.992,247.438,438.734Z"/><path class="cls-10" d="M294.937,461.369c-.982-16.214-.247-32.447-.944-48.655a44.886,44.886,0,0,0-.59-7.469,242.072,242.072,0,0,1-24.55-2.628c4.552,22.554,6.875,45.774,8.6,68.774a295.271,295.271,0,0,1,.765,34.924c-.145,3.471-1,9.183-.932,14.368.106,1.129.193,2.3.228,3.447q10.674,1.834,21.515,2.786c.115-5.333.054-10.78-.12-16.077C298.391,494.274,295.929,477.891,294.937,461.369Z"/><path class="cls-10" d="M273.342,506.459a617.522,617.522,0,0,0-6.48-86.216c-.812-5.667-1.259-11.336-1.944-17.013-.061-.5-.154-.922-.236-1.372-2.039-.379-4.084-.744-6.1-1.194a107.439,107.439,0,0,1-14.569-4.435c1.529,12.842,5.3,25.748,7.24,38.431,2.145,13.961,3.906,27.96,5.812,41.948,1.625,11.9,4.986,24.157,5.686,36.113.131,2.094.117,4.169.145,6.267,0,.618.019,1.236.044,1.846a103.052,103.052,0,0,0,10.59,2.6C273.25,517.78,273.367,512.118,273.342,506.459Z"/><path class="cls-10" d="M228.623,450.349c-2.047-9.99-4.372-19.89-6.8-29.76-2.992-9.49-5.87-18.988-7.4-28.772a48.154,48.154,0,0,0-5.857-12.331c-1.325-.651-2.655-1.3-3.953-1.985a8.107,8.107,0,0,1-1.662.262c1.353,5.624,6.622,21.946,8.027,27.852,3.7,15.519,6,31.306,9.083,46.925,2.686,13.578,4.752,27.81,10.222,40.821a44.8,44.8,0,0,0,13.769,18.471c.428-7.869-5.142-23.118-6.173-26.4A355.835,355.835,0,0,1,228.623,450.349Z"/><path class="cls-10" d="M485.5,375.355c-2.889,1.92-5.943,3.691-9.027,5.368-.794.426-1.6.8-2.4,1.208a51.215,51.215,0,0,0-4.184,9.774,171.138,171.138,0,0,1-5.569,22.627c-3.184,12.994-6.482,25.943-9.268,39.075-2.431,11.479-5.761,22.316-9.133,33.5-.424,1.438-1.906,5.99-3.18,11.1,4.287-5.128,8.447-10.514,10.988-16.255C467.443,450.681,472.27,406.64,485.5,375.355Z"/></g><path class="cls-11" d="M281.7,143.712a57.5,57.5,0,0,1-9.8,6.823c-6.875,3.971-7.009,11.284-6.14,18.593.942,7.918,8.051,14.645,15.685,18.747-4.126.13-8.306.281-12.5.7-.279-.411-2.195-.217-2.813-.013-12.523,4.125-10.2,31.393-.911,41.107-6.812.372-10.554,5.779-14.066,11.084-5.269,7.946-11.263,16.535-12.224,26.341a1.144,1.144,0,0,0-1.278-.36c-8.192,2.508-13.743,7.984-18.35,15.036-3.405,5.216-9.195,16.213-8.2,22.584.033.2.108.379.145.572-.152-.08-.281-.211-.442-.28a1.18,1.18,0,0,0-.312-.064,1.352,1.352,0,0,0-.735-.072c-20.188,3.882-30.247,25.1-27.5,43.977a1.646,1.646,0,0,0-.744,1.424c-.031,8.008,3.175,14.649,6.547,21.74,5.22,11.02,7.686,23.388,10.861,35.088,6.149,22.708,12.673,45.389,18.12,68.272,2.781,11.708,7.238,48.314,25.711,44.937a4.828,4.828,0,0,0,2.646-1.4,14.247,14.247,0,0,0,.752,1.827c1.6,3.138,9.641,8.294,13.6,5.695a6.315,6.315,0,0,0,.8,1.554c3.487,4.834,11.1,8.81,15.272,3.354.075.112.127.239.206.356a1.473,1.473,0,0,0,.9,1.1c6.407,3.049,19.4,9.184,24.115,2.159a10.464,10.464,0,0,0,1.667,2.548c2.838,3.091,9.236.895,12.692.9,3.2.024,4.955-.538,6.133-2.992a9.94,9.94,0,0,0,1.749,2.613c3.405,3.386,8.835,1.349,12.94,1.105a1.766,1.766,0,0,0,.857-.253c.115,0,.213.038.34.028,3.226-.379,5.093-1.288,6.093-3.263.9,2.037,2.606,3.352,6.177,3.769,3.428.164,8.688,1.916,11.727-.477a9.948,9.948,0,0,0,2.2-2.567,4.133,4.133,0,0,0,3.553,1.7c4.526-.029,9.949,1.789,14.1-.642a5.253,5.253,0,0,0,2.063-2.309c4.477,6.866,18.855.22,24.639-2.515a1.6,1.6,0,0,0,.917-1.068c3.392,2.984,9.763,1.049,13.306-1.695a7.343,7.343,0,0,0,2.48-4.412c4.006,2.628,10.238-.712,13.118-4.932a11.981,11.981,0,0,0,1.056-1.873,4.62,4.62,0,0,0,1.546.923c18.593,6.271,24.306-32.629,26.733-43.71,4.868-22.082,11.806-43.719,17.353-65.636,2.883-11.366,5.942-22.784,9.815-33.865,1.95-5.587,4.722-10.477,6.577-15.727a27.484,27.484,0,0,0,2.874-20.452c-1.895-8.52-7.8-14.5-13.713-20.46-5.618-5.652-14.523-14.8-23.225-14.869a10.11,10.11,0,0,0-1.808.185,32.389,32.389,0,0,0,4.276-5.982c8.215-15.226-4.025-30.653-17.066-37.411a48.076,48.076,0,0,0-19.869-5.3,45.449,45.449,0,0,0,3.417-5.049,35.023,35.023,0,0,0,2.72-6.25,29.887,29.887,0,0,0,1.511-7.39,16.011,16.011,0,0,0-1.44-8.288c-4.148-8.1-12.207-10.871-20.328-13.688-4.518-1.567-14.365-7.148-20.806-6.806,2.1-4.734,2.933-10.362,1.99-17.184-.094-.7-.307-1.438-.482-2.162-.068-.3-.115-.595-.195-.9-2.472-8.983-10.132-19.314-17.138-24.226-6.346-4.439-13.338-7.653-20.139-11.31-8.814-4.742-14.743-12.07-20.644-19.923a1.372,1.372,0,0,0-1.857-.486c-4.124,3.172-5.079,7.741-5.847,12.727-.59,3.84-1.115,7.43-1.864,10.872a44.2,44.2,0,0,0-6.894-19.445c-5.229-7.946-16.865-17.545-27.032-12.265-4.749,2.466-7.517,4.051-10.133,8.932.291,3.251-1.365,6.26-3.791,8.9A205.712,205.712,0,0,1,264.226,125.3c-10.58-10.872-18.238-23.654-15.554-40.1a25.057,25.057,0,0,1,7.784-14.4c4.283-3.879,11.666-1.519,15.4,1.809,4.8,4.273,7.819,15.354,2.63,20.418a9.039,9.039,0,0,1-5.667-.412c-.548-.181-1.681,1.445-2.2,1.266a9.434,9.434,0,0,0,6.955-.1c-.052.038-.092.083-.143.12.115-.068.236-.135.351-.2a8.232,8.232,0,0,0,1.173-.68c.211-.12.419-.241.63-.363-.1.047-.185.055-.281.094a11.217,11.217,0,0,0,3.929-9.174c-.159-11.6-11.431-19.627-21.857-13.568-13.129,7.627-13.347,25.484-8.439,38.14,2.768,7.126,7.4,13.217,12.821,18.7C267.885,133.041,275.025,138.462,281.7,143.712Zm1.5,1.185q1.16.918,2.3,1.836c.246.2,1.972-1.445,2.194-1.267-.925-.751-1.873-1.509-2.826-2.269l-.932-.749c2.613-2.585,4.7-5.672,4.739-8.884l.141-.261c5.8-10.812,14.485-10.556,22.2-5.847a37.186,37.186,0,0,1,7.865,6.605,42.492,42.492,0,0,1,6.866,9.953,38.425,38.425,0,0,1,3.789,17.965c-.157.44-.291.888-.464,1.326a37.271,37.271,0,0,1-5.556,9.763c-9.864,12.544-22.851,14.078-36.845,14.625l-1.009.038c-.309-.148-.66-.28-.958-.435a33.3,33.3,0,0,1-12.926-11.344,25.6,25.6,0,0,1-3.491-8.754,27.8,27.8,0,0,1-.611-6.128c.14-7.558,3.873-10.194,9.706-13.6a35.377,35.377,0,0,0,4.775-3.394C282.512,144.348,282.856,144.622,283.2,144.9Zm53.292-3.419c.829-4.073,2.653-6.3,5.559-2.6a84.813,84.813,0,0,0,8.683,9.631c5.614,5.26,12.9,8.405,19.659,11.886a49.427,49.427,0,0,1,19.878,17.665c7.269,11.018,8.378,22.408,3.166,31.867-3,2.13-5.063,5.391-8.065,7.678-5.8,4.428-12.549,7.99-19.01,11.354-1.566.812-3.191,1.592-4.853,2.352a152.15,152.15,0,0,1-30.791,7.425c-8.264,1.079-16.685,1.009-25,.885-9.865-.149-17.211-4.9-26.447-6.9-11.02-2.386-15.123-8.869-17.752-19.38-1.429-5.736-1.3-17.619,4.484-21.582a1.108,1.108,0,0,0,.276,0c14.053-2.844,29.868.756,43.307-4.983,12.559-5.367,21.019-16.1,24.6-29.121C335.63,152.439,335.412,146.77,336.494,141.478ZM420.1,218.8c5.848,2.03,11.274,4.317,15.053,9.476,4.473,6.1,1.151,15.293-1.732,21.262A30.914,30.914,0,0,1,429.213,256c-.052,0-.126-.037-.161,0a48.386,48.386,0,0,1-8.148,7.405c-5.928,4.219-12.867,7.242-19.5,10.242-30.134,13.618-60.941,18.465-94.083,17.06-6.184-.261-13.615-.5-21.3-1.222-.567-.08-1.142-.132-1.7-.22-3.4-.5-6.859-.923-10.318-1.393-12.79-2.317-24.93-6.792-31.952-15.946-.611-3.576.1-7.628,1.417-11.9,2.112-6.865,10.174-22.742,18.48-26.733a1.353,1.353,0,0,0,1.124.308,24.264,24.264,0,0,1,10.153.768c.991.355,2,.665,3.021.94,4.609,1.59,10.306,2.718,14.542,4.371a59.849,59.849,0,0,0,23.492,3.841c19.129-.354,36.24-3.807,53.46-12.235,1.145-.56,2.307-1.144,3.475-1.738,9.887-4.24,19.068-9.4,24.236-17.448,3.312-1.048,8.454.975,11.1,1.823C411.114,215.4,415.565,217.229,420.1,218.8Zm48.163,74.842c-2.942,14.349-21.551,21.118-33.866,25.071-20.112,6.45-40.042,13.412-60.947,16.818-26.049,4.244-52.8,4.129-79.087,2.893a220.841,220.841,0,0,1-34.091-4.3c-11.67-2.386-22.648-9.594-33.162-14.885-3.426-1.727-6.519-5.219-9.179-7.947-4.846-4.978-4.3-9.563-1.968-15.647,4.183-10.94,9.756-21.8,21.417-25.9a28.9,28.9,0,0,0,1.728,2.728c4.754,8.255,13.751,14.005,23.366,16.142,18.312,4.072,37.568,5.4,56.242,5.324,11.442-.047,21.1-.409,32.384-2.518,6.223-1.17,13.874-2.261,19.878-4.368,6.3-2.206,12.6-3.9,18.907-6.121,14.506-5.1,29.8-10.8,40.142-22.2.355-.05.687-.138,1.052-.162,4.988-.347,11.025,1.694,15.7,3.289C460.331,266.486,471.325,278.683,468.263,293.645Zm33.856,53.821c.883,15.169-15.708,24.48-27.018,30.915-23.394,13.31-49.935,19.248-76.45,22.171-26.067,2.866-52.57,2.435-78.761,2.669-24.96.216-53.459-.838-76.786-10.285-11.686-4.734-22.31-11.342-33.69-16.658-10.652-4.979-18.537-9.751-22.5-21.487-6.62-19.605,1.559-43.019,23.016-47.527a12.037,12.037,0,0,1,2.9,2.237c2.583,5.065,7.543,9.283,13.273,12.815,1.616,1.16,3.257,2.294,4.866,3.4,9.931,6.808,23,10.572,34.6,13.175,23.724,5.332,48.943,3.9,73.07,3.29A255.419,255.419,0,0,0,417.5,328.23c10.934-3.758,39.764-14.416,42.482-17.649,7.084-8.432,18.755,2.031,24.216,6.889C493.439,325.7,501.364,334.537,502.119,347.466ZM244.059,511.832c-.136,2.351-.782,4.07-2.274,4.571-14.371,4.851-21.6-44.169-23.929-53.3-4.909-19.159-10.1-38.3-15.4-57.342-2.838-10.182-5.363-20.41-8.843-30.4-1.091-3.138-2.491-6.084-3.838-9.015a32.618,32.618,0,0,0,7.827,7.1c2.24,1.447,4.6,2.777,7.017,4.052,1.3.688,2.628,1.334,3.953,1.985a48.154,48.154,0,0,1,5.857,12.331c1.527,9.784,4.405,19.282,7.4,28.772,2.424,9.87,4.749,19.77,6.8,29.76a355.835,355.835,0,0,0,9.263,35.087C238.917,488.714,244.487,503.963,244.059,511.832Zm9.048,9.928c-2.866-1.456-4.079-4.013-4.585-6.851a24.08,24.08,0,0,1-.349-3.56,127.1,127.1,0,0,0-1.557-14.78c-1.836-12.557-7.385-24.434-10.505-36.723-3.3-13.038-6.252-26.067-10.327-38.9q-1.123-3.562-2.224-7.122c-1.475-6.327-2.936-12.649-4.433-18.972-.377-1.573-.784-3.091-1.241-4.6-.316-2.173-.513-4.37-.663-6.575,2.716,1.287,5.4,2.589,7.99,3.948,4.5,2.37,9.09,4.589,13.769,6.584.229,1.733.363,3.546.625,5.288,1.954,13.207,5.332,26.141,7.831,39.236,4.808,25.258,5.8,51.067,10.521,76.282a30.255,30.255,0,0,1,.7,4.431C258.732,522.018,257.8,524.121,253.107,521.76Zm15.371,5.545a7.14,7.14,0,0,1-5.248-2.823c-.157-1.2-.239-2.427-.286-3.648-.025-.61-.048-1.228-.044-1.846-.028-2.1-.014-4.173-.145-6.267-.7-11.956-4.061-24.208-5.686-36.113-1.906-13.988-3.667-27.987-5.812-41.948-1.943-12.683-5.711-25.589-7.24-38.431a107.439,107.439,0,0,0,14.569,4.435c2.012.45,4.057.815,6.1,1.194.082.45.175.867.236,1.372.685,5.677,1.132,11.346,1.944,17.013a617.522,617.522,0,0,1,6.48,86.216c.025,5.659-.092,11.321.192,16.973.011.347.016.684.042,1.03C271.22,526.851,270.253,527.291,268.478,527.3Zm30.552-.389c-.012.712,0,1.457-.017,2.165-.332,9.549-15.059,2.646-19.813.393a12.468,12.468,0,0,1-1.664-5.142c0-.066-.021-.131-.021-.2-.035-1.147-.122-2.318-.228-3.447-.068-5.185.787-10.9.932-14.368a295.271,295.271,0,0,0-.765-34.924c-1.726-23-4.049-46.22-8.6-68.774a242.072,242.072,0,0,0,24.55,2.628,44.886,44.886,0,0,1,.59,7.469c.7,16.208-.038,32.441.944,48.655.992,16.522,3.454,32.9,3.973,49.47C299.084,516.136,299.145,521.583,299.03,526.916Zm19.71,1.19c-.41,3.785-2.185,5.85-7.592,6.558-6.444.837-7.587-2.933-7.55-7.382.019-1.714.193-3.54.323-5.236.848-11.806-.475-23.543-1.32-35.35-.955-13.441-1.62-26.84-3.016-40.243-.688-6.577-.183-13.236-.125-19.826.076-7.059-1.669-14.105-1.545-21.144,5.393.248,10.788.38,16.155.412a23.326,23.326,0,0,1,.773,5.695c.417,10.424-.454,20.85-.014,31.3.581,14.139,2.651,28.245,2.525,42.4-.1,12.833.721,25.221,1.425,38.011A29.812,29.812,0,0,1,318.74,528.106Zm22.632-.322c-.234,3.709-1.215,6.771-3.943,7.1a1.812,1.812,0,0,0-.815.285,1.122,1.122,0,0,0-.382-.05c-4.025.215-9.681,2.669-11.633-2.979a32.937,32.937,0,0,1-1.052-3.911c-1.072-5.025-1.211-10.393-1.5-15.422-.676-11.989-.056-24.007,0-36.016.057-12.822-1.33-25.626-2.03-38.426-.517-9.53-.358-19.062-1.046-28.572-.043-.581-.078-1.143-.141-1.71q-.092-1.1-.187-2.191c4.91-.019,9.8-.07,14.614-.174l7.671-.154c-.321,18.582-.007,37.133.288,55.7-.217,10.706-.445,21.416-.447,32.123,0,7.076-.236,14.152-.1,21.2C340.711,517.011,341.688,522.955,341.372,527.784Zm22.054-39.509a203.6,203.6,0,0,1-.652,23.6c-.362,3.958-1.233,8.867-1.355,13.5a30.112,30.112,0,0,0,.267,5.279c-1.8,6.435-6.627,4.992-11.987,4.73-2.138-.258-3.388-3.471-4.093-7.957a78.576,78.576,0,0,1-.778-9.465c0-2.524,0-5.062-.042-7.587.077-6.122.382-11.5.367-13.511q-.059-17.745-.437-35.449c.286-18.639.6-37.284.274-55.941,7.088-.146,14.174-.314,21.239-.567-1.619,8.008-.265,17.21-.08,25.191-.03,1.563-.044,3.142-.093,4.7-.284,9.872-1.2,19.726-1.761,29.594C363.712,472.346,363.238,480.3,363.426,488.275Zm21.6-45.424c-.37,13.272-2.121,26.788-3.02,40.062-.806,12.045-2.777,24.451-1.745,36.5.063.75.192,1.644.309,2.614.656,5.034,1.433,12.134-4.678,12.6-2.206.159-4.667-.609-6.932-.6-2.02.009-2.908-1.579-3.3-3.564.417-2,.63-4.038.85-5.887.011-.066.019-.141.033-.216,1.941-16.242,1.07-32.582,1.138-48.89q.819-14.7,1.684-29.379c.138-2.34.2-4.687.248-7.024.862-11.475,1.59-22.978,1.436-34.333q7.709-.33,15.373-.875c.307,6.373-1.155,12.722-1.474,19.1C384.618,429.569,385.213,436.219,385.025,442.851ZM407.089,471.3a307.97,307.97,0,0,0-1.014,33.065c.071,2.759.6,6.977.857,11.277-.054.469-.091.928-.133,1.409a46.607,46.607,0,0,0-.221,8.459,11.567,11.567,0,0,1-1.372,3.962c-5.173,2.36-10.847,4.314-16.534,4.557-3.07.145-3.422-7.044-3.31-12.908.057-3.236.27-6.084.24-7.072-.443-17.566,2.69-35.274,4-52.771,1.161-15.442.963-31.051.916-46.531-.019-4.573.079-8.544,1.8-11.364,7.959-.688,15.874-1.592,23.71-2.875-.087.833-.16,1.648-.239,2.351-.216,1.849-.452,3.685-.672,5.531C411.7,429.251,408.8,450.115,407.089,471.3Zm14.549,40.708c-.027.885-.035,1.766-.057,2.641-.047,1.264-.094,2.519-.1,3.794-.021.782-.037,1.554-.048,2.346.479,4.557-1.337,8.847-6.408,8.117-1.187-.164-3.669-.226-4.489-3.3-.086-3.049.082-6.163.244-9.259.119-2.28.238-4.548.243-6.781a583.824,583.824,0,0,1,5.979-86.263c.85-5.724,1.717-11.435,2.183-17.206.02-.163.037-.313.043-.486.331-1.949.668-3.911,1-5.864,6.8-1.227,13.533-2.731,20.195-4.6-1.379,11.961-4.828,24.033-6.931,35.761-2.52,14.172-4.69,28.409-6.88,42.647C424.647,486.354,422.064,499.06,421.638,512.01Zm17.225-15.676c-.3,1.794-.527,3.607-.775,5.4-.188.768-.375,1.583-.548,2.426a36.1,36.1,0,0,0-.851,8c-.042.346-.083.689-.137,1.035-.56,4-3.156,6.37-6.4,8.43-6.264,3.981-3.955-5.69-3.735-6.983.042-.211.075-.431.107-.637,4.267-25.1,5.836-50.556,10.418-75.65,2.392-13.118,5.714-26.033,7.827-39.231.3-1.845.426-3.719.663-5.48a173.642,173.642,0,0,0,21.578-8.224c-.145,1.6-.332,3.19-.558,4.773-.166.491-.348.978-.489,1.5-2.709,9.484-5.076,19.057-7.311,28.669-.028.066-.042.14-.07.215-4.081,12.816-7.074,25.849-10.314,38.892C445.2,471.8,440.98,483.788,438.863,496.334Zm43.993-94.382c-5.107,19.14-10.383,38.224-15.446,57.38-2.683,10.143-4.727,20.438-7.426,30.568-2.01,7.554-5.881,25.089-15.539,26.339-2.812.356-3.709-2.3-3.643-6.126.253-2.277.415-4.557.74-6.655.332-1.817.749-3.668,1.194-5.461,1.274-5.105,2.756-9.657,3.18-11.1,3.372-11.179,6.7-22.016,9.133-33.5,2.786-13.132,6.084-26.081,9.268-39.075a171.138,171.138,0,0,0,5.569-22.627,51.215,51.215,0,0,1,4.184-9.774c.794-.412,1.6-.782,2.4-1.208,3.084-1.677,6.138-3.448,9.027-5.368a66.143,66.143,0,0,0,7.531-5.723c-.415.923-.829,1.845-1.217,2.8C487.924,381.95,485.5,392.033,482.856,401.952Z"/><path class="cls-5" d="M395.443,212.108c-5.168,8.048-14.349,13.208-24.236,17.448-1.168.594-2.33,1.178-3.475,1.738-17.22,8.428-34.331,11.881-53.46,12.235a59.849,59.849,0,0,1-23.492-3.841c-4.236-1.653-9.933-2.781-14.542-4.371-1.021-.275-2.03-.585-3.021-.94a24.264,24.264,0,0,0-10.153-.768,1.353,1.353,0,0,1-1.124-.308c-8.306,3.991-16.368,19.868-18.48,26.733-1.312,4.269-2.028,8.321-1.417,11.9,7.022,9.154,19.162,13.629,31.952,15.946,3.459.47,6.917.893,10.318,1.393.562.088,1.137.14,1.7.22,7.685.723,15.116.961,21.3,1.222,33.142,1.405,63.949-3.442,94.083-17.06,6.637-3,13.576-6.023,19.5-10.242a48.386,48.386,0,0,0,8.148-7.405c.035-.04.109,0,.161,0a30.914,30.914,0,0,0,4.208-6.461c2.883-5.969,6.2-15.164,1.732-21.262-3.779-5.159-9.205-7.446-15.053-9.476-4.535-1.574-8.986-3.405-13.562-4.872C403.9,213.083,398.755,211.06,395.443,212.108ZM267,257.2a6.749,6.749,0,0,1-7.47,5.483c-3.777-.579-5.739-4.435-5.056-8A6.5,6.5,0,0,1,262.3,249.3a1.251,1.251,0,0,1,1.049.873A6.085,6.085,0,0,1,267,257.2Zm68.072-1.807a6.739,6.739,0,0,1-7.467,5.485c-3.777-.578-5.74-4.436-5.056-8a6.5,6.5,0,0,1,7.829-5.387,1.251,1.251,0,0,1,1.046.873A6.073,6.073,0,0,1,335.07,255.391Zm41.507-1.812a4.606,4.606,0,0,1-5.763,3.051c-2.606-.623-5.107-2.962-4.592-5.84.509-2.833,3.382-4.057,5.978-4.132a1.389,1.389,0,0,1,1.441,1.009C375.666,248.842,377.244,251.163,376.577,253.579Zm27-18.471a6.493,6.493,0,0,1,7.825-5.389,1.263,1.263,0,0,1,1.05.873,6.073,6.073,0,0,1,3.649,7.028,6.741,6.741,0,0,1-7.468,5.484C404.855,242.526,402.891,238.668,403.574,235.108Z"/><path class="cls-5" d="M402.731,290.542c-3.182,1.049-3.787,6.93.2,7.57,2.131.342,5.624-.525,4.851-3.369A5.925,5.925,0,0,0,402.731,290.542Z"/><path class="cls-5" d="M431.079,258.577c-.365.024-.7.112-1.052.162-10.338,11.4-25.636,17.1-40.142,22.2-6.307,2.217-12.611,3.915-18.907,6.121-6,2.107-13.655,3.2-19.878,4.368-11.281,2.109-20.942,2.471-32.384,2.518-18.674.073-37.93-1.252-56.242-5.324-9.615-2.137-18.612-7.887-23.366-16.142a28.9,28.9,0,0,1-1.728-2.728c-11.661,4.1-17.234,14.956-21.417,25.9-2.327,6.084-2.878,10.669,1.968,15.647,2.66,2.728,5.753,6.22,9.179,7.947,10.514,5.291,21.492,12.5,33.162,14.885a220.841,220.841,0,0,0,34.091,4.3c26.283,1.236,53.038,1.351,79.087-2.893,20.905-3.406,40.835-10.368,60.947-16.818,12.315-3.953,30.924-10.722,33.866-25.071,3.062-14.962-7.932-27.159-21.483-31.779C442.1,260.271,436.067,258.23,431.079,258.577Zm-156.485,54.94a7.345,7.345,0,0,1-6.172-7.1,5.858,5.858,0,0,1,3.36-5.665,1.336,1.336,0,0,1,1.468-1.68c4.075.436,9,3.207,9.583,7.671C283.4,311.027,278.4,313.966,274.594,313.517Zm63.741-.638c-5.684-.67-6.726-9.653-1.143-10.564a1.6,1.6,0,0,1,1.616-.166c2.465,1.1,4.864,3.567,5.229,6.327C344.449,311.637,341.028,313.2,338.335,312.879ZM402.5,301.223c-7.334-1.175-6.692-10.8-1.281-13.316a1.243,1.243,0,0,1,1.249-.583c.161.011.315.054.474.078a7.159,7.159,0,0,1,2.208-.024,1.22,1.22,0,0,1,1.111,1.071A8.093,8.093,0,0,1,411,295C411.325,299.66,406.581,301.876,402.5,301.223Z"/><path class="cls-5" d="M453.592,333.558c-2.667.188-1.475,4.49.824,4.331,1.471-.1,2.527-.433,1.635-1.941A7.2,7.2,0,0,0,453.592,333.558Z"/><path class="cls-5" d="M275.418,302.81a1.565,1.565,0,0,1-.814.322c-4.274.365-3.7,6.5.056,7.219,2.135.41,5.957-1.32,4.862-3.945A7.209,7.209,0,0,0,275.418,302.81Z"/><path class="cls-5" d="M405.99,352.842c.834.014,1.645-.238,1.576-1.231-.08-1.213-1.13-1.9-2.142-2.347a1.157,1.157,0,0,1-.176-.122c-.918.179-1.943.6-1.922,1.546C403.35,351.9,404.893,352.819,405.99,352.842Z"/><path class="cls-5" d="M338.091,305.435c-2.662.188-1.473,4.489.822,4.331,1.473-.1,2.529-.435,1.635-1.941A7.131,7.131,0,0,0,338.091,305.435Z"/><path class="cls-5" d="M354.74,363.586a3.687,3.687,0,0,0,3.628-3.246c.351-2.2-1.187-3.358-3.171-3.69a1.369,1.369,0,0,1-.67-.29C351.148,357.165,350.87,363.567,354.74,363.586Z"/><path class="cls-5" d="M286.86,365.792c.831.018,1.644-.239,1.576-1.227-.08-1.213-1.133-1.9-2.145-2.346-.077-.033-.11-.09-.176-.127-.918.183-1.943.6-1.925,1.546C284.219,364.846,285.757,365.769,286.86,365.792Z"/><path class="cls-5" d="M459.982,310.581c-2.718,3.233-31.548,13.891-42.482,17.649a255.419,255.419,0,0,1-78.865,13.948c-24.127.605-49.346,2.042-73.07-3.29-11.6-2.6-24.665-6.367-34.6-13.175-1.609-1.1-3.25-2.237-4.866-3.4-5.73-3.532-10.69-7.75-13.273-12.815a12.037,12.037,0,0,0-2.9-2.237c-21.457,4.508-29.636,27.922-23.016,47.527,3.964,11.736,11.849,16.508,22.5,21.487,11.38,5.316,22,11.924,33.69,16.658,23.327,9.447,51.826,10.5,76.786,10.285,26.191-.234,52.694.2,78.761-2.669,26.515-2.923,53.056-8.861,76.45-22.171,11.31-6.435,27.9-15.746,27.018-30.915-.755-12.929-8.68-21.771-17.921-30C478.737,312.612,467.066,302.149,459.982,310.581Zm-7.289,19.857a1.594,1.594,0,0,1,1.611-.166c2.475,1.1,4.868,3.569,5.231,6.326.417,3.164-3.007,4.721-5.7,4.4C448.15,340.333,447.112,331.351,452.693,330.438ZM400.244,350c.508-2.833,3.384-4.055,5.974-4.135a1.38,1.38,0,0,1,1.44,1.011c2.03,1.171,3.611,3.494,2.939,5.911a4.6,4.6,0,0,1-5.763,3.049C402.23,355.217,399.729,352.88,400.244,350Zm-51.36,8.66a6.5,6.5,0,0,1,7.828-5.391,1.252,1.252,0,0,1,1.047.872,6.087,6.087,0,0,1,3.651,7.029,6.744,6.744,0,0,1-7.471,5.484C350.165,366.078,348.2,362.223,348.884,358.664Zm-67.775,4.29c.51-2.829,3.386-4.051,5.978-4.131a1.385,1.385,0,0,1,1.44,1.007c2.028,1.18,3.611,3.5,2.937,5.915a4.605,4.605,0,0,1-5.758,3.054C283.1,368.176,280.594,365.83,281.109,362.954Zm-70.286-20.783a6.49,6.49,0,0,1,7.824-5.388,1.252,1.252,0,0,1,1.049.874,6.072,6.072,0,0,1,3.648,7.022,6.735,6.735,0,0,1-7.465,5.484C212.1,349.587,210.137,345.729,210.823,342.171Z"/><path class="cls-5" d="M220.305,343.841c.351-2.192-1.19-3.348-3.176-3.681a1.431,1.431,0,0,1-.669-.3c-3.377.805-3.653,7.208.218,7.226A3.677,3.677,0,0,0,220.305,343.841Z"/><path class="cls-12" d="M353.939,366.658a6.744,6.744,0,0,0,7.471-5.484,6.087,6.087,0,0,0-3.651-7.029,1.252,1.252,0,0,0-1.047-.872,6.5,6.5,0,0,0-7.828,5.391C348.2,362.223,350.165,366.078,353.939,366.658Zm.588-10.3a1.369,1.369,0,0,0,.67.29c1.984.332,3.522,1.494,3.171,3.69a3.687,3.687,0,0,1-3.628,3.246C350.87,363.567,351.148,357.165,354.527,356.36Z"/><path class="cls-11" d="M280.723,208.837a1.266,1.266,0,0,0-1.035-.824,5.945,5.945,0,0,0-7.157,4.908c-.625,3.245,1.157,6.778,4.611,7.305a6.149,6.149,0,0,0,6.836-4.984A5.569,5.569,0,0,0,280.723,208.837Zm-2.827,8.316c-3.166-.018-2.974-5.257-.255-6.031a1.508,1.508,0,0,0,.609.236c1.65.278,2.985,1.193,2.686,3.044A3.084,3.084,0,0,1,277.9,217.153Z"/><path class="cls-11" d="M322.4,205.984a1.279,1.279,0,0,0-1.006-.711,4.815,4.815,0,0,0-5.787,3.831c-.587,2.655.921,5.637,3.766,6.019C324.877,215.861,326.814,208.172,322.4,205.984Zm-2.317,6.054c-1.891.073-1.867-3.053-.335-3.642a1.238,1.238,0,0,0,.367.143c1.087.191,1.749.6,1.7,1.767A1.886,1.886,0,0,1,320.082,212.038Z"/><path class="cls-11" d="M351.1,178.945a6.741,6.741,0,0,0,7.464-5.485,6.085,6.085,0,0,0-3.65-7.026,1.251,1.251,0,0,0-1.049-.874,6.493,6.493,0,0,0-7.824,5.389C345.356,174.51,347.315,178.367,351.1,178.945Zm.58-10.3a1.436,1.436,0,0,0,.67.294c1.986.33,3.526,1.488,3.168,3.682a3.67,3.67,0,0,1-3.621,3.251C348.027,175.856,348.3,169.452,351.68,168.646Z"/><path class="cls-11" d="M346.423,202.111a4.6,4.6,0,0,0,5.756-3.049c.672-2.419-.908-4.739-2.937-5.915a1.385,1.385,0,0,0-1.44-1.008c-2.594.077-5.465,1.3-5.973,4.131C341.314,199.149,343.812,201.487,346.423,202.111Zm.41-6.7a1.49,1.49,0,0,0,.171.122c1.018.444,2.07,1.136,2.151,2.351.064.989-.747,1.245-1.58,1.226-1.1-.025-2.639-.947-2.67-2.154C344.887,196.013,345.91,195.588,346.833,195.41Z"/><path class="cls-11" d="M263.345,250.169a1.251,1.251,0,0,0-1.049-.873,6.5,6.5,0,0,0-7.824,5.388c-.683,3.562,1.279,7.418,5.056,8A6.749,6.749,0,0,0,267,257.2,6.085,6.085,0,0,0,263.345,250.169Zm-3.016,9.441c-3.871-.019-3.6-6.426-.218-7.23a1.461,1.461,0,0,0,.67.3c1.986.332,3.524,1.487,3.168,3.682A3.673,3.673,0,0,1,260.329,259.61Z"/><path class="cls-11" d="M408.63,243.1a6.741,6.741,0,0,0,7.468-5.484,6.073,6.073,0,0,0-3.649-7.028,1.263,1.263,0,0,0-1.05-.873,6.493,6.493,0,0,0-7.825,5.389C402.891,238.668,404.855,242.526,408.63,243.1Zm.588-10.3a1.435,1.435,0,0,0,.667.294c1.988.333,3.521,1.489,3.171,3.684a3.68,3.68,0,0,1-3.628,3.252C405.562,240.015,405.836,233.605,409.218,232.8Z"/><path class="cls-11" d="M331.422,248.366a1.251,1.251,0,0,0-1.046-.873,6.5,6.5,0,0,0-7.829,5.387c-.684,3.56,1.279,7.418,5.056,8a6.739,6.739,0,0,0,7.467-5.485A6.073,6.073,0,0,0,331.422,248.366Zm-3.016,9.441c-3.873-.019-3.6-6.425-.216-7.231a1.374,1.374,0,0,0,.668.3c1.983.331,3.527,1.488,3.168,3.683A3.681,3.681,0,0,1,328.406,257.807Z"/><path class="cls-11" d="M373.641,247.667a1.389,1.389,0,0,0-1.441-1.009c-2.6.075-5.469,1.3-5.978,4.132-.515,2.878,1.986,5.217,4.592,5.84a4.606,4.606,0,0,0,5.763-3.051C377.244,251.163,375.666,248.842,373.641,247.667Zm-1.67,5.961c-1.1-.022-2.637-.945-2.667-2.155-.022-.939,1-1.367,1.927-1.544a.829.829,0,0,0,.173.122c1.012.445,2.066,1.136,2.147,2.351C373.614,253.39,372.8,253.646,371.971,253.628Z"/><path class="cls-11" d="M223.344,344.679a6.072,6.072,0,0,0-3.648-7.022,1.252,1.252,0,0,0-1.049-.874,6.49,6.49,0,0,0-7.824,5.388c-.686,3.558,1.277,7.416,5.056,7.992A6.735,6.735,0,0,0,223.344,344.679Zm-6.884-4.814a1.431,1.431,0,0,0,.669.3c1.986.333,3.527,1.489,3.176,3.681a3.677,3.677,0,0,1-3.627,3.25C212.807,347.073,213.083,340.67,216.46,339.865Z"/><path class="cls-11" d="M285.706,368.8a4.605,4.605,0,0,0,5.758-3.054c.674-2.416-.909-4.735-2.937-5.915a1.385,1.385,0,0,0-1.44-1.007c-2.592.08-5.468,1.3-5.978,4.131C280.594,365.83,283.1,368.176,285.706,368.8Zm.409-6.707c.066.037.1.094.176.127,1.012.444,2.065,1.133,2.145,2.346.068.988-.745,1.245-1.576,1.227-1.1-.023-2.641-.946-2.67-2.154C284.172,362.7,285.2,362.275,286.115,362.092Z"/><path class="cls-11" d="M404.834,355.84a4.6,4.6,0,0,0,5.763-3.049c.672-2.417-.909-4.74-2.939-5.911a1.38,1.38,0,0,0-1.44-1.011c-2.59.08-5.466,1.3-5.974,4.135C399.729,352.88,402.23,355.217,404.834,355.84Zm.414-6.7a1.157,1.157,0,0,0,.176.122c1.012.445,2.062,1.134,2.142,2.347.069.993-.742,1.245-1.576,1.231-1.1-.023-2.64-.946-2.664-2.154C403.305,349.742,404.33,349.321,405.248,349.142Z"/><path class="cls-11" d="M273.25,299.072a1.336,1.336,0,0,0-1.468,1.68,5.858,5.858,0,0,0-3.36,5.665,7.345,7.345,0,0,0,6.172,7.1c3.808.449,8.8-2.49,8.239-6.774C282.247,302.279,277.325,299.508,273.25,299.072Zm1.41,11.279c-3.761-.724-4.33-6.854-.056-7.219a1.565,1.565,0,0,0,.814-.322,7.209,7.209,0,0,1,4.1,3.6C280.617,309.031,276.8,310.761,274.66,310.351Z"/><path class="cls-11" d="M406.26,288.449a1.22,1.22,0,0,0-1.111-1.071,7.159,7.159,0,0,0-2.208.024c-.159-.024-.313-.067-.474-.078a1.243,1.243,0,0,0-1.249.583c-5.411,2.512-6.053,12.141,1.281,13.316,4.082.653,8.826-1.563,8.5-6.225A8.093,8.093,0,0,0,406.26,288.449Zm-3.327,9.663c-3.989-.64-3.384-6.521-.2-7.57a5.925,5.925,0,0,1,5.053,4.2C408.557,297.587,405.064,298.454,402.933,298.112Z"/><path class="cls-11" d="M338.808,302.149a1.6,1.6,0,0,0-1.616.166c-5.583.911-4.541,9.894,1.143,10.564,2.693.318,6.114-1.242,5.7-4.4C343.672,305.716,341.273,303.248,338.808,302.149Zm.105,7.617c-2.3.158-3.484-4.143-.822-4.331a7.131,7.131,0,0,1,2.457,2.39C341.442,309.331,340.386,309.667,338.913,309.766Z"/><path class="cls-11" d="M453.831,341c2.7.321,6.121-1.236,5.7-4.4-.363-2.757-2.756-5.229-5.231-6.326a1.594,1.594,0,0,0-1.611.166C447.112,331.351,448.15,340.333,453.831,341Zm.585-3.109c-2.3.159-3.491-4.143-.824-4.331a7.2,7.2,0,0,1,2.459,2.39C456.943,337.456,455.887,337.788,454.416,337.889Z"/><path class="cls-8" d="M388.833,555.865c.223.028.431.042.647.063,0-.035-.017-.08-.019-.117C389.25,555.828,389.044,555.843,388.833,555.865Z"/><g class="cls-13"><path class="cls-3" d="M409.751,553.081c-.037.4-.1.767-.154,1.147a17.63,17.63,0,0,0,1.948.238,15.814,15.814,0,0,1-.314-1.667C410.739,552.888,410.25,552.989,409.751,553.081Z"/><path class="cls-3" d="M472.017,529.848a.129.129,0,0,0-.038.026c-.53,4.743-1.021,8.906-2.936,10.84-.146.141-.3.29-.455.433,1.792.1,3.951-.875,6-2.287-.138-.055-.27-.08-.4-.137C472.192,537.721,471.656,534.389,472.017,529.848Z"/><path class="cls-3" d="M455.439,542.955a15.206,15.206,0,0,1,.2-3.824c-.272.138-.555.26-.826.389a38.978,38.978,0,0,1-.457,7.153,7.11,7.11,0,0,1-.585,1.633,10.779,10.779,0,0,0,6.926-2.087C458.351,546.795,456.317,546.107,455.439,542.955Z"/><path class="cls-3" d="M438.847,545.782c-.352.117-.682.241-1.029.346a32.936,32.936,0,0,1-.66,5.585c.637-.2,1.272-.4,1.89-.611A13.492,13.492,0,0,1,438.847,545.782Z"/></g><path class="cls-11" d="M274.585,155.462c-.595-.157-1.625,1.419-2.192,1.271,12.608,3.324,20.213-11.986,23.459-21.493-.2.589-1.986.651-2.192,1.267C290.808,144.851,285.619,158.374,274.585,155.462Z"/><path class="cls-14" d="M274.932,151.305c-3.878,2.1-6.018,3.255-6.534,9.213a48.365,48.365,0,0,0,.061,7.227,25.676,25.676,0,0,0,3.494,8.754,19.629,19.629,0,0,0,1.55,1.743c5.1,5.015,9.573,8.36,13.343,10,13.991-.547,26.978-2.082,36.842-14.625a37.234,37.234,0,0,0,5.559-9.764,42.7,42.7,0,0,0-3.686-19.3,41.869,41.869,0,0,0-6.5-9.946,37.3,37.3,0,0,0-7.868-6.6,16.533,16.533,0,0,0-2.361-1.079c-8.687-2.967-14.968-.5-19.305,7.817.282,2.806-1.922,6.2-4.484,9,.951.759,1.9,1.518,2.824,2.269-.22-.178-1.948,1.467-2.192,1.267q-1.137-.918-2.3-1.836a27.149,27.149,0,0,1-4.154,3.326A46.388,46.388,0,0,1,274.932,151.305Zm18.89-14.256c.206-.616,2-.678,2.192-1.267-3.246,9.507-10.849,24.817-23.462,21.493.572.149,1.6-1.428,2.2-1.271C285.783,158.917,290.97,145.394,293.822,137.049Z"/></g></g></g></svg>